Coordinates
version=1
nRows=14
nColumns=63
inDegrees=yes

Units are S.I. units (second, meters, Newtons, ...)
If the header above contains a line with 'inDegrees', this indicates whether rotational values are in degrees (yes) or radians (no).

endheader
time	pelvis_tilt	pelvis_list	pelvis_rotation	pelvis_tx	pelvis_ty	pelvis_tz	hip_flexion_r	hip_adduction_r	hip_rotation_r	knee_angle_r	knee_angle_r_beta	ankle_angle_r	subtalar_angle_r	mtp_angle_r	hip_flexion_l	hip_adduction_l	hip_rotation_l	knee_angle_l	knee_angle_l_beta	ankle_angle_l	subtalar_angle_l	mtp_angle_l	L5_S1_Flex_Ext	L5_S1_Lat_Bending	L5_S1_axial_rotation	L4_L5_Flex_Ext	L4_L5_Lat_Bending	L4_L5_axial_rotation	L3_L4_Flex_Ext	L3_L4_Lat_Bending	L3_L4_axial_rotation	L2_L3_Flex_Ext	L2_L3_Lat_Bending	L2_L3_axial_rotation	L1_L2_Flex_Ext	L1_L2_Lat_Bending	L1_L2_axial_rotation	L1_T12_Flex_Ext	L1_T12_Lat_Bending	L1_T12_axial_rotation	Abs_r3	Abs_r2	Abs_r1	Abs_t1	Abs_t2	neck_flexion	neck_bending	neck_rotation	arm_flex_r	arm_add_r	arm_rot_r	elbow_flex_r	pro_sup_r	wrist_flex_r	wrist_dev_r	arm_flex_l	arm_add_l	arm_rot_l	elbow_flex_l	pro_sup_l	wrist_flex_l	wrist_dev_l
0.000000	-0.741130	-3.728118	101.758216	0.420208	0.766374	1.073358	1.497417	0.378865	-7.297548	4.560258	0.079592	19.378354	-6.104685	0.000000	6.121040	-0.644884	3.701691	9.249274	0.161430	26.301198	12.339930	0.000000	0.171598	-0.231017	-0.816632	0.318675	-0.307252	-0.867672	0.281919	-0.561694	-0.867672	0.196120	-0.561694	-0.714553	0.159346	-0.471089	-0.663514	0.098051	-0.357845	-0.612474	1.225710	-2.613308	-4.541863	0.000000	0.000000	27.887191	4.025241	2.714929	11.880187	-9.695214	57.080913	45.122304	37.529210	-13.509808	19.985025	10.798451	-10.631669	49.879622	55.022206	72.408345	-2.383874	24.200482
0.016667	-0.860317	-3.759022	100.474306	0.420847	0.765813	1.075479	1.810171	0.097084	-7.721883	4.711975	0.082239	19.916047	-3.788351	0.000000	6.589009	-0.521800	3.139875	10.242593	0.178767	26.886809	11.121185	0.000000	0.168203	-0.215670	-0.882463	0.312371	-0.286841	-0.937617	0.276342	-0.524381	-0.937617	0.192240	-0.524381	-0.772155	0.156194	-0.439795	-0.717001	0.096111	-0.334073	-0.661848	1.201461	-2.439705	-4.907997	0.000000	0.000000	27.837430	4.309044	4.224373	14.985796	-8.686124	64.789261	43.614699	56.302833	-9.051765	18.222267	8.983062	-11.012559	46.537118	54.887710	73.475867	0.259806	22.705762
0.033333	-0.923646	-3.783680	99.520649	0.421290	0.765367	1.077024	2.022245	-0.088779	-8.138950	4.750198	0.082907	20.402966	-1.830062	0.000000	6.981726	-0.454550	2.665474	11.098592	0.193707	27.378256	10.211728	0.000000	0.167689	-0.199460	-0.921497	0.311415	-0.265282	-0.979090	0.275496	-0.484967	-0.979090	0.191651	-0.484967	-0.806310	0.155716	-0.406739	-0.748716	0.095817	-0.308964	-0.691122	1.197784	-2.256332	-5.125088	0.000000	0.000000	27.805299	4.461429	5.301209	17.400010	-7.860536	71.169025	42.239706	70.572097	-5.400811	16.703177	7.654504	-11.277601	44.228214	54.601359	74.148304	2.344903	21.383603
0.050000	-0.937484	-3.801366	98.863430	0.421556	0.765026	1.078054	2.143310	-0.188868	-8.548201	4.688968	0.081838	20.840646	-0.199807	0.000000	7.303887	-0.436901	2.272346	11.826848	0.206417	27.783506	9.578691	0.000000	0.169539	-0.182634	-0.936748	0.314851	-0.242903	-0.995295	0.278535	-0.444057	-0.995295	0.193766	-0.444057	-0.819655	0.157434	-0.372428	-0.761108	0.096874	-0.282900	-0.702561	1.210999	-2.065995	-5.209913	0.000000	0.000000	27.788347	4.499317	5.989224	19.190998	-7.202726	76.340974	40.992166	80.756787	-2.491847	15.406748	6.763442	-11.436935	42.844083	54.180158	74.468586	3.924441	20.218795
0.066667	-0.908196	-3.811355	98.468834	0.421666	0.764778	1.078631	2.183038	-0.213325	-8.949084	4.542328	0.079279	21.230619	1.132423	0.000000	7.560184	-0.462619	1.954346	12.436934	0.217065	28.110526	9.189205	0.000000	0.173238	-0.165441	-0.931235	0.321721	-0.220036	-0.989437	0.284613	-0.402253	-0.989437	0.197994	-0.402253	-0.814830	0.160869	-0.337367	-0.756628	0.098988	-0.256268	-0.698426	1.237425	-1.871498	-5.179248	0.000000	0.000000	27.784119	4.439629	6.332207	20.426925	-6.696965	80.425878	39.866919	87.276688	-0.259772	14.311972	6.260539	-11.500702	42.275895	53.641111	74.479641	5.051447	19.196132
0.083333	-0.842148	-3.812919	98.303046	0.421641	0.764615	1.078816	2.151098	-0.172293	-9.341051	4.324318	0.075474	21.574417	2.196639	0.000000	7.755311	-0.525472	1.705331	12.938427	0.225818	28.367284	9.010402	0.000000	0.178272	-0.148128	-0.907972	0.331069	-0.197010	-0.964721	0.292884	-0.360158	-0.964721	0.203747	-0.360158	-0.794476	0.165544	-0.302062	-0.737728	0.101865	-0.229450	-0.680979	1.273381	-1.675650	-5.049870	0.000000	0.000000	27.790162	4.299284	6.373945	21.175961	-6.327529	83.544506	38.858809	90.551584	1.360512	13.397844	6.096460	-11.479041	42.414822	53.001225	74.224397	5.778946	18.300404
0.100000	-0.745705	-3.805334	98.332251	0.421500	0.764526	1.078670	2.057161	-0.075918	-9.723551	4.048980	0.070668	21.873575	3.022852	0.000000	7.893962	-0.619227	1.519159	13.340902	0.232843	28.561748	9.009413	0.000000	0.184125	-0.130943	-0.869978	0.341939	-0.174154	-0.924351	0.302499	-0.318375	-0.924351	0.210436	-0.318375	-0.761230	0.170978	-0.267019	-0.706857	0.105209	-0.202831	-0.652483	1.315187	-1.481255	-4.838554	0.000000	0.000000	27.804023	4.095204	6.158227	21.506271	-6.078691	85.817629	37.962676	91.001260	2.434105	12.643356	6.221870	-11.382094	43.152035	52.277503	73.745783	6.159964	17.516404
0.116667	-0.625234	-3.787872	98.522635	0.421265	0.764501	1.078256	1.910898	0.065659	-10.096033	3.730357	0.065107	22.129625	3.641073	0.000000	7.980831	-0.737649	1.389686	13.653933	0.238306	28.701885	9.153369	0.000000	0.190281	-0.114135	-0.820267	0.353371	-0.151800	-0.871534	0.312613	-0.277508	-0.871534	0.217473	-0.277508	-0.717733	0.176695	-0.232744	-0.666467	0.108727	-0.176795	-0.615200	1.359161	-1.291119	-4.562078	0.000000	0.000000	27.823250	3.844310	5.728840	21.486022	-5.934726	87.366015	37.173361	89.045501	3.026106	12.027501	6.587433	-11.219999	44.378705	51.486951	73.086729	6.247527	16.828925
0.133333	-0.487100	-3.759809	98.840383	0.420955	0.764530	1.077634	1.721981	0.242294	-10.457948	3.382489	0.059036	22.344100	4.081310	0.000000	8.020612	-0.874507	1.310768	13.887097	0.242376	28.795663	9.409403	0.000000	0.196226	-0.097952	-0.761856	0.364411	-0.130276	-0.809472	0.322380	-0.238160	-0.809472	0.224267	-0.238160	-0.666624	0.182215	-0.199743	-0.619008	0.112123	-0.151727	-0.571392	1.401622	-1.108048	-4.237217	0.000000	0.000000	27.845389	3.563523	5.129572	21.183383	-5.879908	88.310435	36.485708	85.104091	3.201615	11.529272	7.143813	-11.002896	45.986003	50.646574	72.290162	6.094660	16.222756
0.150000	-0.337669	-3.720418	99.251679	0.420591	0.764603	1.076866	1.500079	0.443844	-10.808746	3.019419	0.052699	22.518533	4.373576	0.000000	8.017999	-1.023567	1.276263	14.049968	0.245218	28.851050	9.744646	0.000000	0.201444	-0.082641	-0.697763	0.374101	-0.109912	-0.741373	0.330952	-0.200933	-0.741373	0.230230	-0.200933	-0.610543	0.187060	-0.168521	-0.566932	0.115105	-0.128011	-0.523322	1.438891	-0.934849	-3.880748	0.000000	0.000000	27.867986	3.269762	4.404211	20.666519	-5.898509	88.771658	35.894556	79.596816	3.025732	11.127662	7.841674	-10.740927	47.865102	49.773376	71.399013	5.754388	15.682692
0.166667	-0.183305	-3.668973	99.722709	0.420193	0.764710	1.076013	1.254863	0.660165	-11.147876	2.655187	0.046342	22.654457	4.547880	0.000000	7.977685	-1.178595	1.280027	14.152121	0.247001	28.876012	10.126229	0.000000	0.205419	-0.068451	-0.631003	0.381483	-0.091039	-0.670440	0.337482	-0.166431	-0.670440	0.234773	-0.166431	-0.552127	0.190752	-0.139585	-0.512690	0.117376	-0.106030	-0.473252	1.467286	-0.774328	-3.509447	0.000000	0.000000	27.888590	2.979949	3.596545	20.003599	-5.974806	88.870453	35.394748	72.943459	2.563555	10.801665	8.631682	-10.444231	49.907171	48.884364	70.456208	5.279738	15.193523
0.183333	-0.038012	-3.576256	100.152120	0.419824	0.764869	1.075288	0.985182	0.872681	-11.508830	2.323818	0.040558	22.725563	4.728017	0.000000	7.885880	-1.334682	1.270030	14.208234	0.247980	28.873578	10.502230	0.000000	0.202735	-0.054833	-0.572494	0.376499	-0.072928	-0.608275	0.333073	-0.133322	-0.608275	0.231706	-0.133322	-0.500932	0.188260	-0.111816	-0.465151	0.115843	-0.084937	-0.429371	1.448114	-0.620287	-3.184041	0.000000	0.000000	27.893052	2.712655	2.823325	19.419697	-6.074182	89.242210	35.116040	66.063012	1.378044	10.148348	9.342543	-10.156605	51.730913	48.063382	69.616176	4.729986	14.687692
0.200000	0.093750	-3.473221	100.539627	0.419484	0.765013	1.074651	0.728500	1.069354	-11.867795	2.046370	0.035716	22.758696	4.861067	0.000000	7.765345	-1.474258	1.310787	14.227370	0.248314	28.861652	10.758337	0.000000	0.198284	-0.043987	-0.518079	0.368232	-0.058502	-0.550459	0.325760	-0.106949	-0.550459	0.226618	-0.106949	-0.453319	0.184126	-0.089697	-0.420939	0.113299	-0.068135	-0.388559	1.416319	-0.497585	-2.881398	0.000000	0.000000	27.884543	2.543941	2.089656	18.827996	-6.203848	89.294055	34.832951	58.597071	0.365911	9.876152	10.034892	-9.835518	53.415607	47.224467	68.841577	4.279220	14.149256
0.216667	0.220253	-3.351704	100.900154	0.419122	0.765128	1.074078	0.473519	1.257123	-12.234071	1.818996	0.031747	22.770829	4.974728	0.000000	7.622084	-1.607170	1.405658	14.230724	0.248373	28.881729	10.943347	0.000000	0.191189	-0.033968	-0.473092	0.355057	-0.045178	-0.502660	0.314104	-0.082590	-0.502660	0.218510	-0.082590	-0.413955	0.177538	-0.069268	-0.384387	0.109245	-0.052617	-0.354819	1.365643	-0.384254	-2.631194	0.000000	0.000000	27.871214	2.455710	1.426198	18.213573	-6.354625	88.798000	34.560825	52.548852	0.049142	9.736720	10.650335	-9.490478	54.894159	46.412475	68.136421	3.870163	13.573127
